<svg width="27" height="401" viewBox="0 0 27 401" fill="none" xmlns="http://www.w3.org/2000/svg">
<path d="M0.91369 400.289L0.91369 391.538C0.913689 387.912 1.45133 385.326 2.52663 383.782C3.60192 382.238 5.14622 381.466 7.15953 381.466C8.2577 381.466 9.19 381.666 9.95643 382.066C10.7229 382.455 11.3291 382.953 11.7753 383.559C12.2214 384.154 12.5245 384.766 12.6847 385.395L12.8563 385.395C13.0279 384.709 13.3139 384.028 13.7142 383.353C14.1032 382.667 14.6923 382.1 15.4816 381.654C16.2595 381.197 17.3176 380.968 18.656 380.968C20.1774 380.968 21.4872 381.357 22.5854 382.135C23.6836 382.901 24.5301 383.999 25.1249 385.429C25.7083 386.859 26 388.558 26 390.525L26 400.289L0.91369 400.289ZM10.5398 393.511L10.5398 391.469C10.5398 390.348 10.311 389.559 9.85348 389.101C9.38447 388.644 8.81822 388.415 8.15475 388.415C7.46839 388.415 6.9479 388.678 6.59329 389.204C6.22723 389.719 6.0442 390.52 6.0442 391.606L6.0442 393.511L10.5398 393.511ZM15.4988 393.511L20.7665 393.511L20.7665 391.126C20.7665 389.948 20.5149 389.124 20.0115 388.655C19.4968 388.186 18.8562 387.952 18.0897 387.952C17.6436 387.952 17.2261 388.055 16.8371 388.261C16.4368 388.455 16.1165 388.792 15.8763 389.273C15.6246 389.753 15.4988 390.417 15.4988 391.263L15.4988 393.511ZM26 361.218L21.2985 362.454L21.2985 370.604L26 371.874L26 379.321L0.810735 371.136L0.810735 362.093L26 353.805L26 361.218ZM15.739 363.861L11.6208 364.942C11.1747 365.056 10.5398 365.222 9.7162 365.439C8.88114 365.657 8.02319 365.874 7.14237 366.091C6.25011 366.297 5.51799 366.457 4.94603 366.572C5.51799 366.675 6.22723 366.823 7.07373 367.018C7.9088 367.201 8.73815 367.395 9.56177 367.601C10.3854 367.796 11.0718 367.967 11.6208 368.116L15.739 369.197L15.739 363.861ZM12.9249 329.783C15.8419 329.783 18.2671 330.326 20.2003 331.413C22.1335 332.5 23.5863 334.033 24.5587 336.012C25.5196 337.979 26 340.296 26 342.961L26 351.077L0.913688 351.077L0.913687 342.395C0.913687 339.695 1.37698 337.407 2.30356 335.531C3.23014 333.655 4.58569 332.231 6.37022 331.259C8.15474 330.275 10.3396 329.783 12.9249 329.783ZM13.1651 336.818C11.6437 336.818 10.3854 337.024 9.39018 337.436C8.38353 337.836 7.63426 338.442 7.14237 339.255C6.63904 340.067 6.38738 341.091 6.38738 342.326L6.38738 344.299L20.4405 344.299L20.4405 342.789C20.4405 340.73 19.8457 339.22 18.656 338.259C17.4549 337.299 15.6246 336.818 13.1651 336.818ZM0.913686 317.051C0.913686 314.775 1.19395 312.881 1.75447 311.371C2.30356 309.861 3.12718 308.729 4.22535 307.974C5.32352 307.208 6.69052 306.824 8.32633 306.824C9.34443 306.824 10.271 306.996 11.1061 307.339C11.9411 307.682 12.6904 308.174 13.3539 308.815C14.0059 309.444 14.5779 310.199 15.0698 311.08L26 303.77L26 311.457L16.8715 316.777L16.8715 318.492L26 318.492L26 325.27L0.913687 325.27L0.913686 317.051ZM6.0442 317.154L6.0442 318.492L11.7753 318.492L11.7753 317.223C11.7753 316.182 11.5465 315.329 11.0889 314.666C10.6313 314.002 9.81344 313.671 8.63519 313.671C7.823 313.671 7.18812 313.945 6.73055 314.494C6.27298 315.043 6.0442 315.93 6.0442 317.154ZM26 281.429L7.93168 286.56L7.93168 286.714C8.40069 286.668 9.03556 286.623 9.83631 286.577C10.6371 286.52 11.5007 286.468 12.4273 286.422C13.3539 286.377 14.2462 286.354 15.1041 286.354L26 286.354L26 292.359L0.913685 292.359L0.913685 283.334L18.7246 278.1L18.7246 277.963L0.913684 272.833L0.913684 263.79L26 263.79L26 270.019L15.0011 270.019C14.2118 270.019 13.3653 270.007 12.4616 269.984C11.5465 269.95 10.6885 269.916 9.88779 269.881C9.0756 269.835 8.435 269.795 7.96599 269.761L7.96599 269.916L26 274.977L26 281.429ZM26 243.491L26 258.385L0.913684 258.385L0.913683 243.491L6.35305 243.491L6.35306 251.607L10.2996 251.607L10.2996 244.091L15.739 244.091L15.739 251.607L20.4748 251.607L20.4748 243.491L26 243.491ZM12.9249 217.804C15.8419 217.804 18.2671 218.347 20.2003 219.434C22.1335 220.521 23.5863 222.054 24.5586 224.033C25.5195 226 26 228.317 26 230.982L26 239.098L0.913683 239.098L0.913683 230.416C0.913682 227.716 1.37697 225.428 2.30355 223.552C3.23013 221.676 4.58569 220.252 6.37021 219.28C8.15474 218.296 10.3396 217.804 12.9249 217.804ZM13.1651 224.839C11.6437 224.839 10.3854 225.045 9.39018 225.457C8.38352 225.857 7.63425 226.464 7.14236 227.276C6.63904 228.088 6.38737 229.112 6.38737 230.347L6.38737 232.32L20.4405 232.32L20.4405 230.81C20.4405 228.751 19.8457 227.241 18.656 226.28C17.4549 225.32 15.6246 224.839 13.1651 224.839ZM26 213.291L0.913682 213.291L0.913681 206.479L26 206.479L26 213.291ZM6.11283 189.869C6.11283 190.67 6.28442 191.385 6.6276 192.014C6.95933 192.643 7.4455 193.181 8.0861 193.627C8.7267 194.073 9.51029 194.416 10.4369 194.657C11.352 194.885 12.393 195 13.5598 195C15.1384 195 16.4654 194.8 17.5407 194.399C18.6159 193.999 19.4281 193.393 19.9772 192.58C20.5263 191.757 20.8008 190.727 20.8008 189.492C20.8008 188.371 20.6464 187.295 20.3376 186.266C20.0287 185.225 19.6569 184.178 19.2222 183.126L24.9533 183.126C25.4452 184.235 25.7998 185.374 26.0172 186.54C26.2345 187.696 26.3432 188.926 26.3432 190.23C26.3432 192.952 25.8055 195.183 24.7302 196.922C23.6435 198.649 22.1392 199.924 20.2174 200.748C18.2956 201.56 16.065 201.966 13.5255 201.966C11.6266 201.966 9.88779 201.703 8.30917 201.177C6.73055 200.639 5.36356 199.856 4.20819 198.826C3.04138 197.797 2.1434 196.527 1.51424 195.017C0.873643 193.496 0.553344 191.757 0.553344 189.801C0.553344 188.588 0.696335 187.313 0.982316 185.974C1.25686 184.624 1.70299 183.309 2.32071 182.028L7.65713 184.104C7.22244 185.019 6.85638 185.946 6.55896 186.884C6.26154 187.822 6.11283 188.817 6.11283 189.869ZM26 162.827L21.2985 164.062L21.2985 172.213L26 173.483L26 180.93L0.810727 172.745L0.810726 163.702L26 155.414L26 162.827ZM15.739 165.469L11.6208 166.55C11.1747 166.665 10.5398 166.831 9.7162 167.048C8.88113 167.265 8.02318 167.483 7.14236 167.7C6.2501 167.906 5.51799 168.066 4.94602 168.18C5.51799 168.283 6.22722 168.432 7.07373 168.627C7.90879 168.81 8.73814 169.004 9.56177 169.21C10.3854 169.404 11.0717 169.576 11.6208 169.725L15.739 170.806L15.739 165.469ZM26 152.686L0.913679 152.686L0.913679 145.908L20.5263 145.908L20.5263 136.248L26 136.248L26 152.686ZM11.312 113.032L11.312 102.204L24.8332 102.204C25.2793 103.497 25.6454 104.978 25.9314 106.649C26.2059 108.319 26.3432 110.069 26.3432 111.899C26.3432 114.313 25.8742 116.429 24.9361 118.248C23.9981 120.067 22.5739 121.485 20.6636 122.503C18.7418 123.522 16.3167 124.031 13.3882 124.031C10.7572 124.031 8.48647 123.527 6.57612 122.521C4.65432 121.514 3.17293 120.033 2.13196 118.076C1.07955 116.109 0.553341 113.701 0.55334 110.853C0.55334 109.285 0.702051 107.798 0.999472 106.391C1.29689 104.984 1.67439 103.76 2.13196 102.719L7.45122 104.864C7.00509 105.768 6.67335 106.706 6.456 107.678C6.22722 108.65 6.11282 109.697 6.11282 110.818C6.11282 112.317 6.45028 113.524 7.1252 114.439C7.80012 115.342 8.70382 116 9.83631 116.412C10.9574 116.824 12.1985 117.03 13.5598 117.03C15.1155 117.03 16.431 116.812 17.5063 116.378C18.5702 115.932 19.3824 115.285 19.9429 114.439C20.492 113.581 20.7665 112.546 20.7665 111.333C20.7665 110.933 20.7379 110.446 20.6807 109.874C20.6235 109.291 20.5549 108.851 20.4748 108.553L16.5454 108.553L16.5454 113.032L11.312 113.032ZM0.913676 88.872C0.913676 86.5956 1.19394 84.7024 1.75446 83.1924C2.30355 81.6824 3.12717 80.5499 4.22534 79.7949C5.32351 79.0285 6.69051 78.6453 8.32632 78.6453C9.34442 78.6453 10.271 78.8169 11.1061 79.1601C11.9411 79.5032 12.6904 79.9951 13.3539 80.6357C14.0059 81.2649 14.5779 82.0199 15.0698 82.9007L26 75.591L26 83.2782L16.8715 88.5975L16.8715 90.3133L26 90.3133L26 97.0911L0.913677 97.0911L0.913676 88.872ZM6.04419 88.9749L6.04419 90.3133L11.7753 90.3133L11.7753 89.0436C11.7753 88.0026 11.5465 87.1504 11.0889 86.4869C10.6313 85.8234 9.81343 85.4917 8.63518 85.4917C7.82299 85.4917 7.18811 85.7662 6.73054 86.3153C6.27297 86.8644 6.04419 87.7509 6.04419 88.9749ZM13.4225 49.8355C15.3557 49.8355 17.1174 50.07 18.7075 50.539C20.2861 50.9966 21.6473 51.7172 22.7913 52.701C23.9352 53.6848 24.816 54.9488 25.4337 56.4931C26.04 58.0374 26.3432 59.8849 26.3432 62.0355C26.3432 64.1403 26.04 65.9648 25.4337 67.5091C24.816 69.042 23.9409 70.306 22.8084 71.3013C21.6645 72.2965 20.2975 73.0343 18.7075 73.5148C17.1174 73.9952 15.3443 74.2354 13.3882 74.2354C10.78 74.2354 8.51507 73.8065 6.59327 72.9485C4.66004 72.0791 3.16721 70.7407 2.1148 68.9333C1.05095 67.1259 0.519021 64.8152 0.51902 62.0011C0.51902 59.1413 1.05095 56.8191 2.1148 55.0346C3.17865 53.2387 4.67719 51.9231 6.61043 51.0881C8.54367 50.253 10.8144 49.8355 13.4225 49.8355ZM13.4225 67.0973C14.9325 67.0973 16.2309 66.9257 17.3176 66.5826C18.4043 66.2394 19.2394 65.696 19.8228 64.9525C20.4062 64.2089 20.6979 63.2366 20.6979 62.0355C20.6979 60.7886 20.4062 59.7991 19.8228 59.067C19.2394 58.3234 18.4043 57.7915 17.3176 57.4712C16.2309 57.1394 14.9325 56.9736 13.4225 56.9736C11.1575 56.9736 9.36729 57.3511 8.05178 58.1061C6.73626 58.8611 6.0785 60.1594 6.0785 62.0011C6.0785 63.2251 6.37593 64.2146 6.97077 64.9696C7.56561 65.7132 8.41212 66.2565 9.51028 66.5997C10.6085 66.9315 11.9125 67.0973 13.4225 67.0973ZM0.913674 23.977L16.0135 23.977C18.1183 23.977 19.9486 24.3774 21.5044 25.1782C23.0487 25.9789 24.2441 27.18 25.0906 28.7815C25.9256 30.383 26.3432 32.3906 26.3432 34.8043C26.3432 38.259 25.4566 40.8957 23.6835 42.7146C21.9104 44.5334 19.4053 45.4428 16.1679 45.4428L0.913674 45.4428L0.913674 38.6307L15.636 38.6307C17.4091 38.6307 18.696 38.299 19.4968 37.6355C20.2975 36.972 20.6979 35.994 20.6979 34.7014C20.6979 33.7748 20.5263 33.0198 20.1831 32.4364C19.8285 31.853 19.2737 31.4297 18.5187 31.1666C17.7637 30.8921 16.7914 30.7548 15.6017 30.7548L0.913674 30.7548L0.913674 23.977ZM0.913673 10.0268C0.913673 6.84672 1.60575 4.46735 2.9899 2.88874C4.37405 1.29868 6.3416 0.503648 8.89256 0.503648C10.0365 0.503647 11.1347 0.669517 12.1871 1.00126C13.2395 1.32155 14.1775 1.85348 15.0011 2.59703C15.8248 3.32915 16.4768 4.3072 16.9572 5.53121C17.4377 6.74377 17.6779 8.24231 17.6779 10.0268L17.6779 11.9315L26 11.9315L26 18.7092L0.913673 18.7092L0.913673 10.0268ZM6.38736 10.1813L6.38736 11.9315L12.1528 11.9315L12.1528 10.5931C12.1528 10.0097 12.0555 9.46631 11.8611 8.96299C11.6551 8.45966 11.3291 8.05928 10.883 7.76186C10.4254 7.453 9.81914 7.29857 9.06415 7.29857C8.27484 7.29857 7.63424 7.53308 7.14235 8.00209C6.63903 8.4711 6.38736 9.19749 6.38736 10.1813Z" fill="black" fill-opacity="0.08"/>
</svg>
